<svg xmlns="http://www.w3.org/2000/svg" viewBox="0 0 512 512" role="img" aria-labelledby="lifeEquipTitle lifeEquipDesc">
  <title id="lifeEquipTitle">LIFE EQUIP logo</title>
  <desc id="lifeEquipDesc">Circular LIFE EQUIP logo with orange and pink swooshes around a magenta center.</desc>
  <defs>
    <linearGradient id="coreFill" x1="0%" y1="0%" x2="100%" y2="100%">
      <stop offset="0%" stop-color="#bf4e9b" />
      <stop offset="100%" stop-color="#9b2f7e" />
    </linearGradient>
    <linearGradient id="orangeSweep" x1="0%" y1="10%" x2="100%" y2="90%">
      <stop offset="0%" stop-color="#ff9b2f" />
      <stop offset="100%" stop-color="#ea4f0f" />
    </linearGradient>
    <linearGradient id="pinkSweep" x1="10%" y1="0%" x2="100%" y2="100%">
      <stop offset="0%" stop-color="#ff4e8f" />
      <stop offset="100%" stop-color="#d43f9f" />
    </linearGradient>
    <filter id="textShadow" x="-30%" y="-30%" width="160%" height="160%">
      <feDropShadow dx="8" dy="8" stdDeviation="2" flood-color="#1b1320" flood-opacity="0.5" />
    </filter>
  </defs>

  <path
    d="M94 150c35-64 109-108 193-108 69 0 132 29 178 79-54-31-116-49-180-49-92 0-170 37-227 110-16 20-28 42-35 66-9 31-10 66-4 103-24-33-36-73-36-116 0-29 6-58 18-85 13 3 28 3 42 0 21-36 50-66 84-88-22 34-35 75-35 119 0 73 34 138 86 180-73-21-133-72-170-141-15-26-24-55-28-84 5-16 9-32 14-48z"
    fill="url(#orangeSweep)"
  />
  <path
    d="M295 44c61 8 117 38 157 84 21 24 38 52 49 82-27-23-61-37-98-43 14 31 22 65 22 101 0 98-57 183-140 223 67-57 110-141 110-235 0-57-16-111-44-157-17-10-35-18-56-24z"
    fill="url(#pinkSweep)"
    opacity="0.95"
  />
  <circle cx="256" cy="256" r="176" fill="url(#coreFill)" />
  <circle cx="256" cy="256" r="170" fill="none" stroke="#ffffff" stroke-width="12" />
  <path
    d="M93 205c26-96 114-162 213-162 56 0 108 21 147 58-30-18-67-29-106-29-110 0-201 84-213 193-6 55 7 108 34 151-46-44-74-106-74-175 0-12 1-24 3-36z"
    fill="none"
    stroke="#ffffff"
    stroke-width="14"
    stroke-linecap="round"
    opacity="0.98"
  />
  <g fill="#ffffff" filter="url(#textShadow)" font-family="Impact, Arial Black, sans-serif" font-weight="900" text-anchor="middle">
    <text x="256" y="244" font-size="110" letter-spacing="2">LIFE</text>
    <text x="256" y="332" font-size="92" letter-spacing="1">EQUIP</text>
  </g>
</svg>
